# xmcd
# 
# Track frame offsets:
#     150
#     17466
#     35470
#     47424
#     65877
#     81443
#     97626
#     114595
#     129750
#     142777
# 
# Disc length: 2145
# 
# Revision: 0
# Processed by: cddbd v1.5.2PL0 Copyright (c) Steve Scherf et al.
# Submitted via: fre:ac v1.0.31
# 
DISCID=72085f0a
DTITLE=R C Banks - My Time
DYEAR=1987
DGENRE=Blues
TTITLE0=My Time ( Will Surely Come)
TTITLE1=I ain't Got Time
TTITLE2=I Don' Know About That
TTITLE3=I' Walking
TTITLE4=It's the Little Things
TTITLE5=Randy Man
TTITLE6=When My Baby Walked By
TTITLE7=Your Money Won't Maks You A Man
TTITLE8=That's the Way Lovers Are
TTITLE9=I'll Be Gone
EXTD=Amazin Records AM-102
EXTT0=
EXTT1=
EXTT2=
EXTT3=
EXTT4=
EXTT5=
EXTT6=
EXTT7=
EXTT8=
EXTT9=
PLAYORDER=
